<svg xmlns:xlink="http://www.w3.org/1999/xlink" xmlns="http://www.w3.org/2000/svg" class="svgr" height="317" viewBox="-30 0 317 317" width="256"><path d="M211.69 309.979V228.12h-81.201l81.2 81.858" fill="#FFBB38"></path><path d="M220.801 263.566v-88.533H132.98l87.822 88.533" fill="#FFBB38"></path><path d="M167.467 228.118v88.534h87.822l-87.822-88.534" fill="#FFBB38"></path><path d="M202.444 180.962v-70.027h-69.467l69.467 70.027" fill="#FFBB38"></path><path d="M235.424 164.267V75.733h-87.822l87.822 88.534" fill="#FFBB38"></path><path d="M85.735 0v88.533h87.822L85.735 0" fill="#FFBB38"></path><path d="M106.334 138.667V50.133H.135l87.443 88.552 18.756-.018" fill="#FFBB38"></path><path d="M106.334 316.175V209.067H.135l106.199 107.108" fill="#FFBB38"></path><path d="M106.357 227.467v-88.534H18.535l87.822 88.534" fill="#FFBB38"></path><path d="M132.976 110.933v88.534h87.823l-87.823-88.534" fill="#FFBB38"></path><path d="M106.135 120.9V32.365H18.313l87.822 88.533M130.489 228.118v88.534h87.822l-87.822-88.534" fill="#FFBB38"></path></svg>